<svg width="24px" height="24px" viewBox="0 0 24 24" fill="none" xmlns="http://www.w3.org/2000/svg">
<path fill-rule="evenodd" clip-rule="evenodd" d="M8.29455 5.32435C8.46362 3.40732 10.0991 2 12 2C13.9009 2 15.5364 3.40732 15.7054 5.32435C15.794 6.3283 15.871 7.46841 15.871 8.41026C15.871 9.3521 15.794 10.4922 15.7054 11.4962C15.5364 13.4132 13.9009 14.8205 12 14.8205C10.0991 14.8205 8.46362 13.4132 8.29455 11.4962C8.20602 10.4922 8.12903 9.3521 8.12903 8.41026C8.12903 7.46841 8.20602 6.3283 8.29455 5.32435ZM12 3.53846C10.8657 3.53846 9.93291 4.37146 9.83703 5.45864C9.74967 6.44919 9.67742 7.53634 9.67742 8.41026C9.67742 9.28417 9.74967 10.3713 9.83703 11.3619C9.93291 12.4491 10.8657 13.2821 12 13.2821C13.1343 13.2821 14.0671 12.4491 14.163 11.3619C14.2503 10.3713 14.3226 9.28417 14.3226 8.41026C14.3226 7.53634 14.2503 6.44919 14.163 5.45865C14.0671 4.37146 13.1343 3.53846 12 3.53846Z" fill="#fff"/>
<path fill-rule="evenodd" clip-rule="evenodd" d="M4.77419 8.15385C5.20177 8.15385 5.54839 8.49824 5.54839 8.92308C5.54839 9.84241 5.61777 10.9078 5.7222 11.9868C6.02346 15.0996 8.76916 17.3846 12 17.3846C15.2308 17.3846 17.9765 15.0996 18.2778 11.9868C18.3822 10.9078 18.4516 9.84241 18.4516 8.92308C18.4516 8.49824 18.7982 8.15385 19.2258 8.15385C19.6534 8.15385 20 8.49824 20 8.92308C20 9.91081 19.9259 11.0299 19.8191 12.134C19.459 15.8542 16.3909 18.5475 12.7742 18.8869V21.2308C12.7742 21.6556 12.4276 22 12 22C11.5724 22 11.2258 21.6556 11.2258 21.2308V18.8869C7.60911 18.5475 4.54095 15.8542 4.18092 12.134C4.07407 11.0299 4 9.91081 4 8.92308C4 8.49824 4.34662 8.15385 4.77419 8.15385Z" fill="#fff"/>
</svg>
